<svg xmlns="http://www.w3.org/2000/svg" xmlns:xlink="http://www.w3.org/1999/xlink" width="177.58" height="31.569" viewBox="0 0 177.58 31.569">
  <defs>
    <clipPath id="clip-path">
      <rect id="Rectangle_20" data-name="Rectangle 20" width="177.58" height="31.569" fill="none"/>
    </clipPath>
  </defs>
  <g id="Group_16" data-name="Group 16" opacity="0.597">
    <g id="Group_15" data-name="Group 15" transform="translate(0 0)" clip-path="url(#clip-path)">
      <path id="Path_11" data-name="Path 11" d="M167.5,19.322a2.854,2.854,0,0,1,1.918.56,2.161,2.161,0,0,1,.746,1.682,2.287,2.287,0,0,1-.738,1.715,2.617,2.617,0,0,1-1.924.574H127.085v7.718h40.431c6.039,0,10.065-3.692,10.065-9.731s-4.193-9.731-10.232-9.731H135.977a2.783,2.783,0,0,1-1.851-.54,2.116,2.116,0,0,1-.693-1.64,2.115,2.115,0,0,1,.688-1.623,2.53,2.53,0,0,1,1.857-.56h40.094V.031H135.977c-6.209,0-10.4,3.689-10.4,9.728s4.193,9.563,10.4,9.563ZM115.923,0,95.791,21.137V0H87.235L67.607,21.137V0H59.051V31.539h8.556l19.628-20.8v20.8h9.06L126.993,0ZM16.744,31.539c-5.407,0-9.344-1.52-12.253-4.371A15.234,15.234,0,0,1,0,15.769,14.681,14.681,0,0,1,4.613,4.613,17.057,17.057,0,0,1,16.683,0H54.188V7.718H17.782c-3.28,0-5.237.6-6.86,2.057a7.839,7.839,0,0,0-2.534,5.994,7.8,7.8,0,0,0,2.561,6.055c1.679,1.453,3.706,2,7.336,2h35.9v7.718Z" transform="translate(0 0)" fill="currentcolor"/>
    </g>
  </g>
</svg>
