<?xml version="1.0" encoding="UTF-8"?>
<svg id="layer" xmlns="http://www.w3.org/2000/svg" viewBox="0 0 599.85 185.8">
 
    
  <g>
    <path fill="#4d4d4d" d="m371.55,133.7s35.5-72.1-40.3-72.1c-66.5,0-88.2,58.4-92.1,72.6-7.6,28,5.9,51,40.9,51h52.8l7-24.1-49.2-.1s-35.6,1.3-21.5-27.3h102.4Zm-44-49.9c31.2,0,19.6,25.4,19.6,25.4h-67.1s14.4-25.4,47.5-25.4"/>
    <polygon fill="#4d4d4d" points="396.85 185.4 366.45 185.4 424.85 .6 455.15 .6 396.85 185.4"/>
    <polygon fill="#4d4d4d" points="447.15 185.4 416.75 185.4 454.55 66.4 484.95 66.4 447.15 185.4"/>
    <polygon fill="#4d4d4d" points="493.15 38.8 462.85 38.8 472.75 6 503.15 6 493.15 38.8"/>
  </g>
  <g>
    <path fill="#4d4d4d" d="m462.15,185.8h66c5.5,0,43.4-.4,52.8-39.1,8-33.1-27.4-33.9-32.8-33.9h-19.2c-3.4,0-19.6.9-11-12.2,5.2-8,13.6-10.7,19.8-10.7,3.9,0,54.1-.2,54.1-.2l8-23.1-57.1-.2s-35.1-1.8-50.8,27.2c-16.2,30.1,9.7,42.2,28.2,42.2h24.4c3,0,12.4,1.1,8.9,11.2-3,8.7-13.4,13.9-20,14.1-4,.2-62.9,0-62.9,0l-8.4,24.7Z"/>
    <path fill="#4d4d4d" d="m91.35,128.6h-.2c-3.3,0-6.5-1.4-8.5-3.7-2-2.3-2.9-5.2-2.9-7.8,0-3.2,1.2-6.5,3.7-9.1,2.4-2.5,23.1-23.2,34-34.1-4.2-4-7.3-6.9-8-7.7-4.2-4.2-11.2-3.9-10.5-3.8H6.25c-6.9,0-7.8,7.9-4.1,11.6,2.9,2.9,31.3,31.4,38.9,39,6.7,6.7,6.1,11,6.1,11,0,0,.6,4.3-6.1,11.1-7.6,7.6-36,36.1-38.9,39-3.7,3.7-2.7,11.6,4.1,11.6h92.8s6.4.1,10.4-3.8c3.1-3.1,49.1-46.8,49.1-46.8,0,0,2.9-2.4,4.4-6.5h-71.6Z"/>
    <path fill="#4d4d4d" d="m132.15,61.7s.6,4.3-6.1,11c-7.6,7.6-36,36.1-38.9,39-3.7,3.7-2.7,11.6,4.2,11.6h92.8s6.4.1,10.4-3.8c3.1-3.1,49.1-46.8,49.1-46.8,0,0,5.2-4.3,5.2-10.8v-.4c0-6.6-5.2-10.8-5.2-10.8,0,0-46-43.7-49.1-46.8C190.65-.1,184.15,0,184.15,0h-92.8c-6.9,0-7.8,7.9-4.2,11.6,2.9,2.9,31.3,31.4,38.9,39,6.7,6.7,6.1,11.1,6.1,11.1"/>
  </g>
</svg>