<?xml version="1.0" encoding="UTF-8"?>
<svg id="Ebene_1" data-name="Ebene 1" xmlns="http://www.w3.org/2000/svg" viewBox="0 0 898.8 205.7">
    <g>
    <path fill= "#007ba4" d="m890.7,60.2c-4.5,0-8.1,4.1-8.1,9.4s3.5,9.3,8.1,9.3,8.1-4,8.1-9.3-3.5-9.4-8.1-9.4Z"/>
    <path fill= "#007ba4" d="m646.3,205.7c-68.1,0-132.5-21.9-186.3-63.2l6.1-7.9c52.1,40,114.4,61.1,180.3,61.1,89.1,0,172.7-39.6,229.2-108.6l7.7,6.3c-58.5,71.4-144.8,112.3-237,112.3Z"/>
  </g>
  <path fill= "#1d1d1d" d="m0,1.8h10.7v91.4h44.1l-2.3,9.1H0V1.8h0Z"/>
  <path fill= "#1d1d1d" d="m149.8,102.3l-10.4-22.9h-53.9l-10.2,22.8h-11.7L111.2,0h2.3l47.7,102.3h-11.4Zm-60.7-31.5h46.7l-23.3-51.2-23.4,51.2Z"/>
  <path fill= "#1d1d1d" d="m209.4,104c-28.4,0-41-19.3-41-50.1V1.7h10.7v48.9c0,28.2,6.8,44.2,30.1,44.2s30.5-15.7,30.5-44.1V1.6h10.7v52.5c0,30.8-12.6,49.9-41,49.9Z"/>
  <path fill= "#1d1d1d" d="m273.9,1.8h52.3v8.9h-41.6v31.4h31.8v8.9h-31.8v42.1h55.1l-2.3,9.1h-63.5V1.8h0Z"/>
  <path fill= "#1d1d1d" d="m363.3,23.2v79.1h-10.7V.2h2.1l72.2,80.8V1.8h10.7v101.7h-2.4l-71.9-80.3Z"/>
  <path fill= "#1d1d1d" d="m481.3,57.7h-9.4v44.6h-10.7V1.8h21c22.4,0,36.3,9.7,36.3,27.7,0,13.9-9.6,22.4-22.4,24.3,16.2,5.2,23.2,40.5,44.9,40.2l-2.1,9.1c-31.4,0-32.4-45.4-57.6-45.4Zm1.9-47.3h-11.3v38.9h10.3c16.2,0,25.8-6.5,25.8-19.4s-9.3-19.5-24.8-19.5Z"/>
  <path fill= "#1d1d1d" d="m591.1,103.5c-28.5,0-51.2-18.5-51.2-51.7S562.6.3,591.1.3s51.3,18.5,51.3,51.7-22.8,51.5-51.3,51.5Zm0-94.1c-22.2,0-40.2,15.2-40.2,42.4s18,42.6,40.2,42.6,40.3-15.1,40.3-42.4-18-42.6-40.3-42.6Z"/>
  <path fill= "#1d1d1d" d="m681.3,102.3h-10.5V10.8h-29l2.3-8.9h65.5v8.9h-28.2l-.1,91.5h0Z"/>
  <path fill= "#1d1d1d" d="m797,51.1h-60.6v51.2h-10.7V1.8h10.7v40.3h60.6V1.8h10.8v100.4h-10.8v-51.1Z"/>
</svg>