<svg xmlns="http://www.w3.org/2000/svg" xmlns:xlink="http://www.w3.org/1999/xlink" width="100.399" height="102.052" viewBox="0 0 100.399 102.052">
  <defs>
    <clipPath id="clip-path">
      <rect id="Rectangle_35" data-name="Rectangle 35" width="88.367" height="54.875" fill="none"/>
    </clipPath>
  </defs>
  <g id="Group_31" data-name="Group 31" transform="translate(0 64.627) rotate(-47)">
    <g id="Group_27" data-name="Group 27" transform="translate(0 0)" clip-path="url(#clip-path)">
      <path id="Path_30" data-name="Path 30" d="M86.867,31.084c1.427.219,1.811,2.03,1.262,3.11a34.426,34.426,0,0,1-7.737,10.225,1.7,1.7,0,0,1-1.683.439c-.293-.11-.713-.2-.878-.512l-.146-.274a1.692,1.692,0,0,1,0-1.738c.86-1.372,1.774-2.725,2.689-4.061-14.048,6.75-32.084,4.3-45.747-1.829A74.136,74.136,0,0,1,14.14,22.506a76.533,76.533,0,0,1-8.195-9.182C3.366,9.921.622,6.135.019,1.854A1.479,1.479,0,0,1,2.47.428c2.762,2.488,4.683,5.835,6.9,8.835a69.773,69.773,0,0,0,7.847,8.908,75.182,75.182,0,0,0,18.877,13.1,66.372,66.372,0,0,0,23.944,6.64c7.9.6,15.347-.878,22.755-3.293l.037-.055A46.132,46.132,0,0,1,77.337,33.5c-2.451-.713-5.561-1.3-6.878-3.64A1.772,1.772,0,0,1,71.5,27.3c2.579-.512,4.628,1.024,7.042,1.829a50.014,50.014,0,0,0,8.323,1.957" transform="translate(0 -0.007)" fill="#231f20"/>
    </g>
  </g>
</svg>
