<svg xmlns="http://www.w3.org/2000/svg" xmlns:xlink="http://www.w3.org/1999/xlink" width="172.409" height="35.521" viewBox="0 0 172.409 35.521">
  <defs>
    <clipPath id="clip-path">
      <path id="Path_19" data-name="Path 19" d="M0,9.116H172.409V-26.4H0Z" transform="translate(0 26.405)" fill="none"/>
    </clipPath>
  </defs>
  <g id="Group_23" data-name="Group 23" transform="translate(0 26.405)" opacity="0.597">
    <g id="Group_17" data-name="Group 17" transform="translate(0 -15.198)">
      <path id="Path_12" data-name="Path 12" d="M9.02,0,3.186,16.209-2.515,0H-8.392L-14.27,16.209-19.925,0h-6.547l8.638,23.957h6.681L-5.588,9.085-.2,23.957H6.48L15.164,0Z" transform="translate(26.472)"/>
    </g>
    <g id="Group_22" data-name="Group 22" transform="translate(0 -26.405)" clip-path="url(#clip-path)">
      <path id="Path_13" data-name="Path 13" d="M33.04-15.28h7.029V8.758H33.04Zm.361-4.468a3.609,3.609,0,0,1-1.217-2.77A3.612,3.612,0,0,1,33.4-25.288,4.483,4.483,0,0,1,36.555-26.4a4.6,4.6,0,0,1,3.154,1.072,3.425,3.425,0,0,1,1.217,2.681A3.779,3.779,0,0,1,39.71-19.77a4.428,4.428,0,0,1-3.154,1.139A4.477,4.477,0,0,1,33.4-19.747" transform="translate(11.482 26.405)"/>
      <path id="Path_14" data-name="Path 14" d="M41.982-24.91h7.029V8.244H41.982Z" transform="translate(14.977 26.921)"/>
      <g id="Group_18" data-name="Group 18" transform="translate(69.352 2.01)">
        <path id="Path_15" data-name="Path 15" d="M2.737,6.089-.643,9.4v6.121H-7.672V-17.637H-.643V1.129L9.632-8.522h8.381L7.92,1.666l11,13.851H10.4Z" transform="translate(7.672 17.637)"/>
      </g>
      <g id="Group_19" data-name="Group 19" transform="translate(94.135 10.767)">
        <path id="Path_16" data-name="Path 16" d="M2.358,1.7A5.685,5.685,0,0,0,.376,5.36H12.317a5.746,5.746,0,0,0-1.982-3.64A5.955,5.955,0,0,0,6.369.357,6.087,6.087,0,0,0,2.358,1.7m16.448,7.73H.465a5.657,5.657,0,0,0,2.343,3.53,7.811,7.811,0,0,0,4.6,1.3,9.366,9.366,0,0,0,3.357-.558,8.138,8.138,0,0,0,2.727-1.765l3.739,4.021q-3.423,3.888-10,3.888A15.932,15.932,0,0,1-.03,18.252,11.679,11.679,0,0,1-4.9,13.85,12.04,12.04,0,0,1-6.61,7.462,12.209,12.209,0,0,1-4.919,1.095,11.8,11.8,0,0,1-.278-3.33a13.736,13.736,0,0,1,6.6-1.586A13.608,13.608,0,0,1,12.767-3.4,11.14,11.14,0,0,1,17.3.96a12.906,12.906,0,0,1,1.646,6.59q0,.133-.136,1.877" transform="translate(6.61 4.916)"/>
      </g>
      <g id="Group_20" data-name="Group 20" transform="translate(122.435 10.768)">
        <path id="Path_17" data-name="Path 17" d="M5.788.688Q8.56,3.37,8.56,8.641V22.4H1.529V9.713A6.232,6.232,0,0,0,.268,5.446a4.65,4.65,0,0,0-3.65-1.407A5.619,5.619,0,0,0-7.618,5.67,6.714,6.714,0,0,0-9.2,10.518V22.4h-7.029V-1.635H-9.51V1.179A9.342,9.342,0,0,1-6.041-1.166a12.171,12.171,0,0,1,4.552-.827A10.024,10.024,0,0,1,5.788.688" transform="translate(16.225 1.993)"/>
      </g>
      <g id="Group_21" data-name="Group 21" transform="translate(150.463 10.769)">
        <path id="Path_18" data-name="Path 18" d="M1.209,6.163a15.5,15.5,0,0,1-4.6-1.854l2.343-5A14.829,14.829,0,0,0,2.876.98a16.561,16.561,0,0,0,4.506.648q4.461,0,4.462-2.19a1.555,1.555,0,0,0-1.217-1.474,18.212,18.212,0,0,0-3.741-.759A36.144,36.144,0,0,1,1.975-3.822,7.642,7.642,0,0,1-1.383-5.878a5.818,5.818,0,0,1-1.419-4.2,6.535,6.535,0,0,1,1.33-4.044A8.546,8.546,0,0,1,2.4-16.87a16.683,16.683,0,0,1,6.016-.982,23.789,23.789,0,0,1,5.115.558,14.4,14.4,0,0,1,4.214,1.542L15.4-10.793A14.091,14.091,0,0,0,8.418-12.58a7.157,7.157,0,0,0-3.38.626,1.84,1.84,0,0,0-1.126,1.608A1.6,1.6,0,0,0,5.13-8.782,21.665,21.665,0,0,0,9-7.933a42.174,42.174,0,0,1,4.867,1.049,7.34,7.34,0,0,1,3.29,2.034,5.738,5.738,0,0,1,1.4,4.11,6.311,6.311,0,0,1-1.351,3.977,8.625,8.625,0,0,1-3.943,2.7A17.714,17.714,0,0,1,7.112,6.9a23.759,23.759,0,0,1-5.9-.737" transform="translate(3.388 17.852)"/>
      </g>
    </g>
  </g>
</svg>
