<svg xmlns="http://www.w3.org/2000/svg" viewBox="0 0 1000 1000" style="enable-background:new 0 0 1000 1000" xml:space="preserve"><path d="m659.2 500 307.3-305.6c44.7-44.4 44.7-111.1 0-155.6C949.7 16.7 921.8 0 893.9 0 866 0 838 11.1 815.7 33.3L502.8 344.4 195.5 38.9C150.8-5.6 78.2-5.6 39.1 38.9 16.8 55.6 0 83.3 0 116.7s11.2 55.6 33.5 77.8L340.8 500 33.5 805.6C16.8 827.8 0 855.6 0 888.9c0 27.8 11.2 55.6 33.5 77.8 22.3 22.2 50.3 33.3 78.2 33.3s55.9-11.1 78.2-33.3l307.3-305.6 307.3 305.6c44.7 44.4 117.3 44.4 156.4 0 44.7-44.4 44.7-116.7 0-155.6L659.2 500z" style="fill:#007ba4"/></svg>