<svg xmlns="http://www.w3.org/2000/svg" width="52.562" height="52.562" viewBox="0 0 52.562 52.562">
  <path id="Icon_awesome-facebook-square" data-name="Icon awesome-facebook-square" d="M46.93,2.25H5.632A5.632,5.632,0,0,0,0,7.882v41.3a5.632,5.632,0,0,0,5.632,5.632h16.1V36.942H14.343V28.531h7.392V22.12c0-7.292,4.341-11.32,10.99-11.32a44.779,44.779,0,0,1,6.514.568v7.157H35.57c-3.615,0-4.742,2.243-4.742,4.544v5.462H38.9l-1.291,8.411H30.827v17.87h16.1a5.632,5.632,0,0,0,5.632-5.632V7.882A5.632,5.632,0,0,0,46.93,2.25Z" transform="translate(0 -2.25)" fill="#fff"/>
</svg>
