<svg xmlns="http://www.w3.org/2000/svg" viewBox="0 0 1000 1000" style="enable-background:new 0 0 1000 1000" xml:space="preserve"><path d="M73.2 926.8C146.4 1000 264.3 1000 500 1000c235.7 0 353.6 0 426.8-73.2C1000 853.6 1000 735.7 1000 500c0-235.7 0-353.6-73.2-426.8C853.6 0 735.7 0 500 0 264.3 0 146.4 0 73.2 73.2 0 146.4 0 264.3 0 500c0 235.7 0 353.6 73.2 426.8zM837.5 700c0 20.7-16.8 37.5-37.5 37.5H200c-20.7 0-37.5-16.8-37.5-37.5s16.8-37.5 37.5-37.5h600c20.7 0 37.5 16.8 37.5 37.5zM800 537.5c20.7 0 37.5-16.8 37.5-37.5s-16.8-37.5-37.5-37.5H200c-20.7 0-37.5 16.8-37.5 37.5s16.8 37.5 37.5 37.5h600zM837.5 300c0 20.7-16.8 37.5-37.5 37.5H200c-20.7 0-37.5-16.8-37.5-37.5s16.8-37.5 37.5-37.5h600c20.7 0 37.5 16.8 37.5 37.5z" style="fill-rule:evenodd;clip-rule:evenodd;fill:#007ba4"/></svg>