<svg xmlns="http://www.w3.org/2000/svg" width="52.562" height="52.562" viewBox="0 0 52.562 52.562">
  <path id="Icon_awesome-linkedin" data-name="Icon awesome-linkedin" d="M48.808,2.25H3.743A3.771,3.771,0,0,0,0,6.04V51.022a3.771,3.771,0,0,0,3.743,3.79H48.808a3.781,3.781,0,0,0,3.754-3.79V6.04A3.781,3.781,0,0,0,48.808,2.25ZM15.886,47.3H8.1V22.219h7.8V47.3Zm-3.9-28.51a4.517,4.517,0,1,1,4.517-4.517,4.519,4.519,0,0,1-4.517,4.517Zm33.1,28.51H37.3V35.1c0-2.91-.059-6.652-4.048-6.652-4.059,0-4.681,3.168-4.681,6.441V47.3h-7.79V22.219h7.474v3.426h.106a8.205,8.205,0,0,1,7.38-4.048c7.884,0,9.351,5.2,9.351,11.956Z" transform="translate(0 -2.25)" fill="#fff"/>
</svg>
