<svg xmlns="http://www.w3.org/2000/svg" width="52.562" height="52.562" viewBox="0 0 52.562 52.562">
  <path id="Icon_awesome-xing-square" data-name="Icon awesome-xing-square" d="M46.93,2.25H5.632A5.633,5.633,0,0,0,0,7.882v41.3a5.633,5.633,0,0,0,5.632,5.632h41.3a5.633,5.633,0,0,0,5.632-5.632V7.882A5.633,5.633,0,0,0,46.93,2.25ZM16.473,36.063H11.005a.79.79,0,0,1-.7-1.208l5.784-10.172c.012,0,.012-.012,0-.023L12.4,18.324a.747.747,0,0,1,.7-1.185h5.467a1.746,1.746,0,0,1,1.514,1.021l3.743,6.488q-.229.4-5.878,10.348A1.725,1.725,0,0,1,16.473,36.063ZM42.249,10.944l-12.061,21.2v.023L37.873,46.13a.752.752,0,0,1-.7,1.185H31.7a1.682,1.682,0,0,1-1.514-1.021L22.444,32.18q.4-.722,12.132-21.389a1.683,1.683,0,0,1,1.467-1.021h5.5A.75.75,0,0,1,42.249,10.944Z" transform="translate(0 -2.25)" fill="#fff"/>
</svg>
